<svg xmlns="http://www.w3.org/2000/svg" width="64" height="64" viewBox="0 0 64 64">
  <!-- Background circle -->
  <circle cx="32" cy="32" r="32" fill="#10B981"/>
  <!-- Head -->
  <circle cx="32" cy="24" r="10" fill="#FECACA"/>
  <!-- Body / shoulders -->
  <path d="M12 64 C12 46 20 40 32 40 C44 40 52 46 52 64 Z" fill="#FECACA"/>
  <!-- Hair (long, dark) -->
  <path d="M22 20 C22 12 28 10 32 10 C36 10 42 12 42 20 C44 28 44 34 42 38 C40 36 36 34 32 34 C28 34 24 36 22 38 C20 34 20 28 22 20 Z" fill="#3B1A08"/>
  <!-- Online dot -->
  <circle cx="52" cy="12" r="6" fill="#10B981" stroke="white" stroke-width="2"/>
</svg>
