<svg xmlns="http://www.w3.org/2000/svg" viewBox="0 0 48 48" fill="none">
  <rect width="48" height="48" rx="12" fill="#FFFFFF"/>
  <path d="M24 10c-7.7 0-14 6.3-14 14s6.3 14 14 14 14-6.3 14-14-6.3-14-14-14z" fill="#F8F0FF"/>
  <path d="M18.5 22c0-1.1.9-2 2-2s2 .9 2 2-.9 2-2 2-2-.9-2-2zM25.5 22c0-1.1.9-2 2-2s2 .9 2 2-.9 2-2 2-2-.9-2-2z" fill="#E94560"/>
  <path d="M19 28.5c0 0 2 3 5 3s5-3 5-3" stroke="#E94560" stroke-width="2" stroke-linecap="round"/>
  <path d="M12 18l4 2M36 18l-4 2" stroke="#E94560" stroke-width="1.5" stroke-linecap="round"/>
  <path d="M14 14l3 3M34 14l-3 3" stroke="#8B5CF6" stroke-width="1.5" stroke-linecap="round"/>
  <path d="M24 8v3" stroke="#E94560" stroke-width="1.5" stroke-linecap="round"/>
</svg>
